<svg width="1200" height="760" viewBox="0 0 1200 760" fill="none" xmlns="http://www.w3.org/2000/svg" role="img" aria-labelledby="title desc">
  <title id="title">DB Table Compare Pro visual</title>
  <desc id="desc">A visual comparison of two database tables with highlighted mismatches and AI summary.</desc>
  <rect width="1200" height="760" rx="36" fill="#0B1518"/>
  <rect x="48" y="48" width="1104" height="664" rx="24" fill="#F5F8F9"/>
  <rect x="88" y="92" width="1024" height="78" rx="14" fill="#FFFFFF" stroke="#D5E1E5"/>
  <circle cx="126" cy="131" r="14" fill="#18A999"/>
  <text x="156" y="122" fill="#071719" font-family="Inter,Segoe UI,sans-serif" font-size="24" font-weight="800">DB Table Compare Pro</text>
  <text x="156" y="149" fill="#5E7178" font-family="Inter,Segoe UI,sans-serif" font-size="16">Oracle / MySQL reconciliation with AI-assisted analysis</text>
  <g transform="translate(88 210)">
    <rect width="430" height="350" rx="16" fill="#FFFFFF" stroke="#D5E1E5"/>
    <text x="24" y="42" fill="#071719" font-family="Inter,Segoe UI,sans-serif" font-size="19" font-weight="800">Source table</text>
    <rect x="24" y="68" width="382" height="42" rx="8" fill="#E8F7F5"/>
    <text x="42" y="95" fill="#0C403D" font-family="Cascadia Code,Consolas,monospace" font-size="15">customer_id</text>
    <text x="184" y="95" fill="#0C403D" font-family="Cascadia Code,Consolas,monospace" font-size="15">amount</text>
    <text x="294" y="95" fill="#0C403D" font-family="Cascadia Code,Consolas,monospace" font-size="15">status</text>
    <g font-family="Cascadia Code,Consolas,monospace" font-size="15" fill="#273D44">
      <text x="42" y="145">C-1001</text><text x="184" y="145">240.00</text><text x="294" y="145">PAID</text>
      <text x="42" y="190">C-1002</text><text x="184" y="190">119.50</text><text x="294" y="190">OPEN</text>
      <text x="42" y="235">C-1003</text><text x="184" y="235">89.10</text><text x="294" y="235">PAID</text>
      <text x="42" y="280">C-1004</text><text x="184" y="280">300.00</text><text x="294" y="280">HOLD</text>
    </g>
  </g>
  <g transform="translate(682 210)">
    <rect width="430" height="350" rx="16" fill="#FFFFFF" stroke="#D5E1E5"/>
    <text x="24" y="42" fill="#071719" font-family="Inter,Segoe UI,sans-serif" font-size="19" font-weight="800">Target table</text>
    <rect x="24" y="68" width="382" height="42" rx="8" fill="#E8F7F5"/>
    <text x="42" y="95" fill="#0C403D" font-family="Cascadia Code,Consolas,monospace" font-size="15">cust_id</text>
    <text x="184" y="95" fill="#0C403D" font-family="Cascadia Code,Consolas,monospace" font-size="15">total</text>
    <text x="294" y="95" fill="#0C403D" font-family="Cascadia Code,Consolas,monospace" font-size="15">state</text>
    <rect x="176" y="164" width="88" height="34" rx="8" fill="#FFE8E8"/>
    <rect x="286" y="254" width="82" height="34" rx="8" fill="#FFF2D8"/>
    <g font-family="Cascadia Code,Consolas,monospace" font-size="15" fill="#273D44">
      <text x="42" y="145">C-1001</text><text x="184" y="145">240.00</text><text x="294" y="145">PAID</text>
      <text x="42" y="190">C-1002</text><text x="184" y="190">121.00</text><text x="294" y="190">OPEN</text>
      <text x="42" y="235">C-1003</text><text x="184" y="235">89.10</text><text x="294" y="235">PAID</text>
      <text x="42" y="280">C-1004</text><text x="184" y="280">300.00</text><text x="294" y="280">BLOCKED</text>
    </g>
  </g>
  <path d="M544 365H656" stroke="#18A999" stroke-width="8" stroke-linecap="round"/>
  <path d="M638 344L660 365L638 386" stroke="#18A999" stroke-width="8" stroke-linecap="round" stroke-linejoin="round"/>
  <rect x="246" y="604" width="708" height="72" rx="16" fill="#0C403D"/>
  <text x="278" y="633" fill="#B9FFF6" font-family="Inter,Segoe UI,sans-serif" font-size="17" font-weight="800">AI summary</text>
  <text x="278" y="659" fill="#FFFFFF" font-family="Inter,Segoe UI,sans-serif" font-size="16">2 mismatches found. Largest variance: amount for C-1002. Status drift detected for C-1004.</text>
</svg>
